# xmcd CD database file
# Copyright (C) 1995 Ti Kan
#
# Track frame offsets:
#	187
#	13612
#	29075
#	40495
#	52565
#	62667
#	78955
#	88442
#	104547
#	116947
#	127705
#
# Disc length: 1932 seconds
#
# Revision: 1
# Processed by: cddbd v1.4b41PL1 Copyright (c) Steve Scherf et al.
# Submitted via: NotifyCDPlayer(CDDB) 1.07
#
DISCID=8e078a0b
DTITLE=John Denver - Take Me To Tomorrow
DYEAR=1900
DGENRE=
TTITLE0=Take Me To Tomorrow
TTITLE1=Isabel
TTITLE2=Follow Me
TTITLE3=Forest Lawn
TTITLE4=Aspenglow
TTITLE5=Amsterdam
TTITLE6=Anthem - Revelation
TTITLE7=Sticky Summer Weather
TTITLE8=Carolina In My Mind
TTITLE9=Jimmy Newman
TTITLE10=Molly
EXTD=
EXTT0=
EXTT1=
EXTT2=
EXTT3=
EXTT4=
EXTT5=
EXTT6=
EXTT7=
EXTT8=
EXTT9=
EXTT10=
PLAYORDER=
